Patient4_TMGait_0pt4_03_right_15_GRF.mot
version=1
nRows=32
nColumns=19
inDegrees=no
endheader
time	F1x	F1y	F1z	M1x	M1y	M1z	F2x	F2y	F2z	M2x	M2y	M2z	EC1x	EC1y	EC1z	EC2x	EC2y	EC2z
18.74	8.1651	804.7165	84.8772	-266.6763	-83.6829	881.4482	12.8462	19.6582	-5.8843	5.3531	3.1271	23.3321	-0.0592	0.0182	-0.0073	-0.0462	0.0165	0.9585
18.7537	3.1837	787.6412	80.922	-261.2099	-81.6408	857.1571	8.5718	13.8956	-4.0381	3.8379	2.2965	16.4008	-0.0592	0.0182	-0.0073	-0.0462	0.0165	0.9585
18.7674	-0.44888	768.5347	77.0399	-254.9952	-79.1227	830.973	4.9312	9.0375	-2.4858	2.5726	1.5931	10.594	-0.0592	0.0182	-0.0073	-0.0462	0.0165	0.9585
18.7811	-2.476	748.8254	73.4369	-248.5142	-76.2259	804.6763	2.1394	5.3741	-1.3084	1.6294	1.0548	6.2399	-0.0592	0.0182	-0.0073	-0.0462	0.0165	0.9585
18.7949	-2.9886	730.1047	70.2576	-242.3175	-73.1225	779.9856	0.19163	2.8694	-0.50344	0.9945	0.68665	3.2794	-0.0592	0.0182	-0.0073	-0.0462	0.0165	0.9585
18.8086	-2.2618	713.9742	67.5514	-236.9644	-69.9652	758.4901	-1.0446	1.3473	-0.013152	0.61743	0.46973	1.5031	-0.0592	0.0182	-0.0073	-0.0462	0.0165	0.9585
18.8223	-0.60385	701.8609	65.3273	-232.9547	-66.8866	741.5201	-1.7307	0.55095	0.22994	0.42466	0.37838	0.59824	-0.0592	0.0182	-0.0073	-0.0462	0.0165	0.9585
18.836	1.7083	694.8339	63.5544	-230.6646	-63.9696	730.0121	-2.0528	0.19998	0.30315	0.3343	0.38155	0.22896	-0.0592	0.0182	-0.0073	-0.0462	0.0165	0.9585
18.8497	4.4781	693.4399	62.1922	-230.2866	-61.2641	724.3676	-2.174	0.027943	0.26678	0.26638	0.45817	0.07908	-0.0592	0.0182	-0.0073	-0.0462	0.0165	0.9585
18.8634	7.5468	697.5979	61.2018	-231.7953	-58.7993	724.3837	-2.1984	-0.20233	0.16936	0.14782	0.58516	-0.14208	-0.0592	0.0182	-0.0073	-0.0462	0.0165	0.9585
18.8771	10.8008	706.6364	60.5378	-234.9566	-56.5815	729.3002	-2.2081	-0.68916	0.045517	-0.083766	0.74616	-0.66491	-0.0592	0.0182	-0.0073	-0.0462	0.0165	0.9585
18.8909	14.1566	719.4054	60.1513	-239.3674	-54.6026	737.9268	-2.2295	-1.5973	-0.076258	-0.48131	0.91068	-1.689	-0.0592	0.0182	-0.0073	-0.0462	0.0165	0.9585
18.9046	17.5168	734.4198	60.0035	-244.503	-52.865	748.7897	-2.2476	-3.0085	-0.17068	-1.0739	1.0383	-3.3078	-0.0592	0.0182	-0.0073	-0.0462	0.0165	0.9585
18.9183	20.7814	750.0022	60.0719	-249.7681	-51.3851	760.2598	-2.1928	-4.9178	-0.21773	-1.8565	1.0781	-5.5155	-0.0592	0.0182	-0.0073	-0.0462	0.0165	0.9585
18.932	23.8493	764.436	60.3592	-254.5506	-50.2057	770.7084	-1.9512	-7.1759	-0.18871	-2.7672	0.95393	-8.1454	-0.0592	0.0182	-0.0073	-0.0462	0.0165	0.9585
18.9457	26.6238	776.0879	60.87	-258.2707	-49.372	778.6191	-1.3719	-9.4053	-0.052478	-3.6565	0.57099	-10.7571	-0.0592	0.0182	-0.0073	-0.0462	0.0165	0.9585
18.9594	29.0068	783.5158	61.6121	-260.424	-48.9286	782.6664	-0.24552	-10.927	0.22559	-4.2545	-0.18786	-12.5737	-0.0592	0.0182	-0.0073	-0.0462	0.0165	0.9585
18.9731	30.9438	785.671	62.5622	-260.6509	-48.8822	781.8994	1.6369	-10.6767	0.67912	-4.1393	-1.436	-12.3634	-0.0592	0.0182	-0.0073	-0.0462	0.0165	0.9585
18.9869	32.4596	782.0721	63.6406	-258.798	-49.1582	775.8836	4.4532	-7.1672	1.3373	-2.721	-3.2689	-8.4029	-0.0592	0.0182	-0.0073	-0.0462	0.0165	0.9585
19.0006	33.6627	772.8342	64.7289	-254.9261	-49.62	764.735	8.2818	1.5119	2.2	0.75476	-5.7104	1.5261	-0.0592	0.0182	-0.0073	-0.0462	0.0165	0.9585
19.0143	34.7229	758.4915	65.6818	-249.2506	-50.0804	748.9348	12.9878	17.5475	3.2177	7.1489	-8.6425	19.9705	-0.0592	0.0182	-0.0073	-0.0462	0.0165	0.9585
19.028	35.8091	739.7246	66.3514	-242.0493	-50.3441	729.0891	18.0892	43.053	4.2572	17.2904	-11.7133	49.4035	-0.0592	0.0182	-0.0073	-0.0462	0.0165	0.9585
19.0417	37.0082	717.0808	66.5169	-233.5721	-50.1674	705.6881	22.5811	79.5065	5.0686	31.7461	-14.2322	91.5819	-0.0592	0.0182	-0.0073	-0.0462	0.0165	0.9585
19.0554	38.3002	690.7194	65.9221	-223.9513	-49.3053	678.8625	24.9001	126.9075	5.2774	50.4889	-15.1514	146.5533	-0.0592	0.0182	-0.0073	-0.0462	0.0165	0.9585
19.0691	39.5429	660.3237	64.2628	-213.1611	-47.5029	648.2962	23.1364	182.8036	4.4273	72.5136	-13.2053	211.5205	-0.0592	0.0182	-0.0073	-0.0462	0.0165	0.9585
19.0829	40.4954	625.224	61.3309	-201.0474	-44.6213	613.3335	16.3131	242.0188	1.8804	95.7219	-7.3369	280.5476	-0.0592	0.0182	-0.0073	-0.0462	0.0165	0.9585
19.0966	40.8964	584.7903	57.0659	-187.4448	-40.6675	573.3465	6.3366	298.8697	-2.5995	117.8188	1.9145	346.9723	-0.0592	0.0182	-0.0073	-0.0462	0.0165	0.9585
19.1103	40.486	538.7863	51.6677	-172.2807	-35.8877	528.0962	-4.448	349.5742	-8.5041	137.3171	13.006	406.1536	-0.0592	0.0182	-0.0073	-0.0462	0.0165	0.9585
19.124	39.0639	487.5583	45.5385	-155.6381	-30.7037	477.9066	-14.542	393.7811	-15.2034	154.1084	24.6164	457.4689	-0.0592	0.0182	-0.0073	-0.0462	0.0165	0.9585
19.1377	36.4866	432.1594	39.0969	-137.8077	-25.5394	423.7866	-23.2213	433.4201	-21.8822	169.0102	35.5662	503.0644	-0.0592	0.0182	-0.0073	-0.0462	0.0165	0.9585
19.1514	32.7262	374.2213	32.7216	-119.2621	-20.7571	367.2863	-30.2822	470.8864	-28.011	183.03	45.1924	545.6856	-0.0592	0.0182	-0.0073	-0.0462	0.0165	0.9585
19.1651	27.841	315.8162	26.6793	-100.6177	-16.6017	310.3873	-35.5649	508.0587	-33.3756	196.9594	53.225	587.4193	-0.0592	0.0182	-0.0073	-0.0462	0.0165	0.9585
